<svg viewBox="0 0 213 32" xmlns="http://www.w3.org/2000/svg"><g fill="none" fill-rule="evenodd"><path d="M36.256.764H0V31.35s3.231-2.985 7.672-3.276c6.35-.42 8.975 2.681 15.001 3.71 7.368 1.254 12.181-3.275 13.307-4.584.276-.338.23-.425.263-.503l.013-.098V.764z" fill="#217AAA"/><path d="M3.436 25.79c1.217-.64 2.296-.965 4.854-1.112 6.184-.36 8.491 1.936 14.34 2.843 4.598.713 7.19-.314 9.148-1.567 1.038-.665.762-.49 1.306-.944.483-.402.6-.683.53-.963-.022-.084-.113-.084-.287.032l-.404.266c-4.601 3.212-10.636 1.324-15.905-.33-4.902-1.538-10.924-.864-13.649 1.077 0 0-.324.21-.553.56-.075.115-.25.587-.035.487.25-.115.452-.257.655-.35m7.16-7.989l-5.214-6.848V17.8H3.044V7.027h2.185l5.045 6.632V7.027h2.339V17.8h-2.017m9.052.184c-3.17 0-5.522-2.446-5.522-5.54v-.03c0-3.063 2.307-5.572 5.612-5.572 2.03 0 3.246.678 4.247 1.662l-1.507 1.74c-.831-.755-1.677-1.216-2.755-1.216-1.813 0-3.12 1.507-3.12 3.354v.031c0 1.847 1.276 3.386 3.12 3.386 1.231 0 1.985-.492 2.831-1.262l1.508 1.524c-1.107 1.185-2.338 1.923-4.414 1.923m5.98-.184V7.027h2.37v8.618h5.368V17.8h-7.738" fill="#FFFFFE"/><path fill="#000" d="M53.955 16.99L46.084 6.652V16.99h-3.53V.729h3.296l7.618 10.012V.73h3.53v16.26h-3.043m22.086-8.13c0-2.789-2.043-5.112-4.923-5.112s-4.876 2.279-4.876 5.066v.046c0 2.788 2.042 5.11 4.923 5.11 2.878 0 4.876-2.277 4.876-5.064V8.86zm-4.923 8.41c-5.016 0-8.614-3.741-8.614-8.364V8.86c0-4.624 3.644-8.41 8.661-8.41 5.015 0 8.614 3.742 8.614 8.364v.046c0 4.621-3.645 8.41-8.661 8.41zM94.776 6.28c0-1.533-1.068-2.323-2.809-2.323h-3.554v4.67h3.622c1.742 0 2.74-.928 2.74-2.299V6.28zm-.07 10.71l-3.483-5.203h-2.81v5.203h-3.575V.729h7.43c3.832 0 6.13 2.02 6.13 5.368v.045c0 2.625-1.415 4.274-3.484 5.041l3.972 5.807h-4.18zm26.756.118h-3.111l-3.669-10.64-3.67 10.64H107.9L102.352.728h3.83l3.367 11.012L113.194.683h3.065l3.646 11.057L123.272.73h3.739l-5.55 16.379m9.833-.119V.729h12.262V3.91h-8.71v3.298h7.663v3.183h-7.663v3.416h8.825v3.182h-12.377m25.017.281c-5.06 0-8.544-3.554-8.544-8.364V8.86c0-4.624 3.6-8.41 8.523-8.41 2.926 0 4.69.79 6.385 2.23l-2.253 2.72c-1.254-1.047-2.368-1.652-4.25-1.652-2.6 0-4.666 2.3-4.666 5.066v.046c0 2.973 2.044 5.155 4.924 5.155 1.299 0 2.46-.323 3.366-.974v-2.324h-3.6V7.63h7.06v7.061c-1.673 1.416-3.971 2.58-6.945 2.58m12.524-.281h3.575V.729h-3.575zm16.541-12.08l-2.16 5.273h4.32l-2.16-5.272zm4.922 12.08l-1.83-3.646h-6.528l-1.487 3.646h-3.646L183.773.614h3.297l6.967 16.376h-3.739zm19.387 0l-7.871-10.338V16.99h-3.53V.729h3.297l7.616 10.012V.73h3.53v16.26h-3.042M46.606 31.068c-2.393 0-4.17-1.846-4.17-4.18v-.025c0-2.312 1.743-4.207 4.24-4.207 1.533 0 2.45.513 3.205 1.256l-1.138 1.313c-.627-.569-1.265-.918-2.08-.918-1.369 0-2.356 1.139-2.356 2.534v.022c0 1.394.964 2.557 2.357 2.557.93 0 1.498-.372 2.137-.952l1.138 1.149c-.836.896-1.764 1.451-3.333 1.451m10.892-5.494c0-.769-.533-1.162-1.405-1.162h-1.777v2.336h1.811c.872 0 1.37-.465 1.37-1.152v-.022zm-.035 5.356l-1.742-2.602h-1.405v2.602h-1.79V22.8h3.718c1.917 0 3.067 1.008 3.067 2.681v.023c0 1.314-.71 2.14-1.744 2.522l1.988 2.905h-2.092zm8.012.128c-2.185 0-3.519-1.22-3.519-3.614V22.8h1.788v4.599c0 1.325.663 2.01 1.755 2.01 1.091 0 1.753-.663 1.753-1.952V22.8h1.79v4.587c0 2.462-1.384 3.672-3.567 3.672m6.63-.129h1.79V22.8h-1.79zm7.873.115a5.168 5.168 0 0 1-3.45-1.301l1.058-1.267c.73.605 1.497.99 2.426.99.732 0 1.174-.291 1.174-.767v-.024c0-.453-.278-.686-1.637-1.034-1.638-.419-2.696-.872-2.696-2.486v-.025c0-1.475 1.186-2.452 2.847-2.452 1.184 0 2.195.372 3.02 1.035l-.93 1.349c-.72-.5-1.429-.803-2.113-.803-.687 0-1.047.314-1.047.709v.024c0 .534.35.709 1.754 1.068 1.65.43 2.58 1.023 2.58 2.442v.021c0 1.616-1.232 2.521-2.986 2.521m5.7-.115V22.8h6.133v1.589h-4.356v1.65h3.833v1.593h-3.833v1.709h4.414v1.59h-6.19m13.585-.001V22.8h1.789v6.504h4.053v1.627h-5.842m8.43-.001h1.788V22.8h-1.788zm10.684 0l-3.937-5.17v5.17h-1.765V22.8h1.65l3.809 5.006V22.8h1.765v8.131h-1.522m4.632-.001V22.8h6.133v1.589h-4.356v1.65h3.834v1.593h-3.834v1.709h4.414v1.59h-6.192m10.619-6.631c-.117-.067-.305-.1-.564-.1h-.398v.962h.423c.195 0 .345-.022.446-.06.18-.071.273-.212.273-.415 0-.191-.062-.322-.18-.387zm-.502-.418c.328 0 .57.032.723.095.274.116.41.34.41.672 0 .238-.086.41-.257.522a.995.995 0 0 1-.385.13c.211.03.36.12.456.261a.71.71 0 0 1 .142.409v.194c0 .06.004.127.007.197.006.07.012.117.025.138l.017.034h-.436a.144.144 0 0 1-.009-.027.116.116 0 0 1-.005-.03l-.01-.086v-.21c0-.305-.084-.506-.25-.606-.1-.056-.275-.086-.52-.086h-.368v1.045h-.469v-2.652h.93zm-1.42-.134a2.003 2.003 0 0 0-.604 1.47c0 .577.2 1.071.601 1.479.403.408.892.613 1.469.613.574 0 1.082-.26 1.47-.613.424-.387.604-.902.604-1.479a2 2 0 0 0-.605-1.47 1.995 1.995 0 0 0-1.47-.613c-.572 0-1.06.204-1.465.613zm3.176 3.18a2.33 2.33 0 0 1-1.71.71 2.315 2.315 0 0 1-1.705-.71 2.343 2.343 0 0 1-.701-1.715c0-.662.236-1.23.707-1.702a2.307 2.307 0 0 1 1.699-.705c.668 0 1.238.234 1.71.705.47.47.707 1.036.707 1.702 0 .671-.237 1.24-.707 1.715z"/></g></svg>